<?xml version="1.0" standalone="no"?>
<!DOCTYPE svg PUBLIC "-//W3C//DTD SVG 20010904//EN"
 "http://www.w3.org/TR/2001/REC-SVG-20010904/DTD/svg10.dtd">
<svg version="1.0" xmlns="http://www.w3.org/2000/svg"
 width="465.000000pt" height="274.000000pt" viewBox="0 0 465.000000 274.000000"
 preserveAspectRatio="xMidYMid meet">

<g transform="translate(0.000000,274.000000) scale(0.100000,-0.100000)"
fill="#000000" stroke="none">
<path d="M1010 2165 l-136 -135 -307 0 c-279 0 -311 -2 -357 -19 -73 -28 -131
-80 -171 -153 l-34 -63 0 -580 0 -580 28 -57 c52 -106 163 -178 280 -181 l62
-2 5 648 5 649 37 33 c20 19 49 37 63 41 35 9 88 -3 117 -26 13 -10 118 -172
234 -360 l209 -342 3 398 2 399 52 52 52 53 53 -52 53 -52 0 -536 c0 -516 -1
-536 -20 -568 -43 -71 -135 -93 -201 -49 -25 16 -88 110 -232 342 -109 176
-202 327 -207 335 -6 9 -10 -167 -10 -478 l0 -493 398 3 c318 3 404 7 434 18
100 40 187 139 208 235 7 33 10 236 8 595 l-3 545 -27 58 c-19 39 -48 76 -90
115 -34 31 -128 121 -208 200 -80 78 -150 142 -155 142 -4 0 -70 -61 -145
-135z"/>
<path d="M2655 2135 c-57 -56 -16 -145 67 -145 46 1 68 12 86 47 19 35 14 63
-17 94 -39 39 -100 41 -136 4z"/>
<path d="M3955 2137 c-38 -32 -38 -92 0 -124 34 -30 93 -31 129 -2 21 16 26
29 26 64 0 35 -5 48 -26 64 -36 29 -95 28 -129 -2z"/>
<path d="M1770 1190 c0 -434 3 -790 8 -790 4 0 7 356 7 790 0 435 -3 790 -7
790 -5 0 -8 -355 -8 -790z"/>
<path d="M2233 1901 c-23 -11 -50 -28 -61 -39 -20 -20 -20 -20 -27 14 l-6 34
-79 0 -80 0 0 -315 0 -315 85 0 85 0 0 224 0 224 31 26 c43 36 119 37 154 1
l25 -24 0 -226 0 -225 86 0 85 0 -3 253 c-3 247 -3 253 -28 297 -46 83 -168
116 -267 71z"/>
<path d="M3165 1901 c-22 -10 -46 -25 -54 -34 -20 -25 -31 -21 -31 13 l0 30
-80 0 -80 0 0 -315 0 -315 85 0 85 0 0 229 0 230 26 20 c29 23 101 29 134 11
32 -17 40 -76 40 -287 l0 -203 86 0 87 0 -5 213 c-6 225 -1 254 41 277 25 13
97 13 121 0 32 -17 40 -76 40 -287 l0 -203 86 0 86 0 -4 243 c-3 203 -7 249
-22 282 -36 82 -89 115 -189 115 -59 0 -112 -21 -154 -62 l-31 -30 -17 25
c-40 62 -167 86 -250 48z"/>
<path d="M2640 1595 l0 -315 85 0 85 0 0 315 0 315 -85 0 -85 0 0 -315z"/>
<path d="M3937 1904 c-4 -4 -7 -146 -7 -316 l0 -308 90 0 90 0 -3 313 -2 312
-80 3 c-45 1 -84 0 -88 -4z"/>
<path d="M2072 1053 c-70 -34 -106 -115 -105 -234 1 -91 24 -150 76 -196 58
-51 150 -57 209 -13 l28 21 0 -47 c0 -39 -5 -51 -34 -80 -29 -29 -41 -34 -81
-34 -50 0 -77 10 -113 43 l-22 21 -18 -25 c-24 -34 -22 -40 29 -71 128 -80
289 -24 318 110 6 31 11 149 11 282 l0 230 -40 0 c-33 0 -40 -3 -40 -20 0 -25
-2 -25 -46 5 -44 30 -121 34 -172 8z m178 -79 l31 -26 -3 -126 -3 -126 -34
-23 c-66 -45 -146 -21 -177 53 -34 82 -6 236 49 262 42 20 103 14 137 -14z"/>
<path d="M2581 1045 c-30 -26 -31 -26 -31 -6 0 18 -6 21 -40 21 l-40 0 0 -235
0 -235 40 0 40 0 0 175 c0 212 3 217 115 227 27 3 30 6 30 38 0 34 -1 35 -41
38 -33 2 -48 -2 -73 -23z"/>
<path d="M2855 1056 c-79 -35 -124 -116 -125 -221 0 -90 14 -137 53 -182 110
-125 314 -81 361 78 40 134 -7 274 -108 320 -48 22 -137 24 -181 5z m155 -75
c46 -34 65 -79 64 -156 -1 -110 -47 -175 -126 -175 -88 0 -137 62 -138 175 0
143 106 226 200 156z"/>
<path d="M3860 1063 c-8 -3 -27 -15 -42 -25 -28 -19 -28 -19 -28 1 0 18 -6 21
-40 21 l-40 0 0 -325 0 -325 40 0 40 0 0 109 0 108 47 -23 c106 -54 217 -9
258 105 24 69 20 195 -9 257 -33 70 -74 98 -151 101 -33 1 -67 0 -75 -4z m115
-85 c37 -29 55 -76 55 -144 0 -118 -44 -184 -121 -184 -46 0 -94 22 -109 49
-13 25 -13 227 0 251 27 50 127 66 175 28z"/>
<path d="M3240 873 c0 -210 6 -232 72 -274 44 -27 146 -22 189 10 29 21 29 21
29 1 0 -17 6 -20 40 -20 l40 0 0 235 0 235 -40 0 -40 0 0 -171 c0 -103 -4
-178 -11 -191 -26 -49 -134 -64 -174 -23 -25 24 -25 26 -25 205 l0 180 -40 0
-40 0 0 -187z"/>
</g>
</svg>
